<svg xmlns="http://www.w3.org/2000/svg" viewBox="0 0 800 330" width="800" height="330" role="img" aria-label="Gıda Taşımacılığı — Dönmar Nakliyat">
<defs>
  <linearGradient id="bg" x1="0" y1="0" x2="1" y2="1">
    <stop offset="0" stop-color="#0f3540"/><stop offset=".55" stop-color="#1f5b6c"/><stop offset="1" stop-color="#2b788e"/>
  </linearGradient>
  <radialGradient id="isik" cx=".78" cy=".16" r=".72">
    <stop offset="0" stop-color="#7fd4ee" stop-opacity=".30"/><stop offset="1" stop-color="#7fd4ee" stop-opacity="0"/>
  </radialGradient>
  <pattern id="cizgi" width="26" height="26" patternUnits="userSpaceOnUse" patternTransform="rotate(35)">
    <line x1="0" y1="0" x2="0" y2="26" stroke="#ffffff" stroke-opacity=".05" stroke-width="9"/>
  </pattern>
</defs>
<rect width="800" height="330" fill="url(#bg)"/>
<rect width="800" height="330" fill="url(#cizgi)"/>
<rect width="800" height="330" fill="url(#isik)"/>
<circle cx="92" cy="288" r="150" fill="#ffffff" opacity=".035"/>
<circle cx="712" cy="52" r="112" fill="#ffffff" opacity=".045"/>
<rect x="0" y="0" width="800" height="5" fill="#f5a524"/>

<g transform="translate(335,44) scale(1.3)"><g fill="none" stroke="#ffffff" stroke-width="3.2" stroke-linecap="round" stroke-linejoin="round">
  <rect x="4" y="24" width="54" height="40" rx="2.5"/>
  <path d="M58 64V38h14l10 12v14z"/>
  <path d="M0 76h96"/>
</g>
<g fill="none" stroke="#ffffff" stroke-width="3.2">
  <circle cx="24" cy="68" r="6.4"/><circle cx="70" cy="68" r="6.4"/>
</g>
<g stroke="#f5a524" stroke-width="2.6" stroke-linecap="round" fill="none" transform="translate(31,44)">
  <g><path d="M0-14V14"/><path d="M0-14l-4.2 4.2M0-14l4.2 4.2M0 14l-4.2-4.2M0 14l4.2-4.2"/></g>
  <g transform="rotate(60)"><path d="M0-14V14"/><path d="M0-14l-4.2 4.2M0-14l4.2 4.2M0 14l-4.2-4.2M0 14l4.2-4.2"/></g>
  <g transform="rotate(120)"><path d="M0-14V14"/><path d="M0-14l-4.2 4.2M0-14l4.2 4.2M0 14l-4.2-4.2M0 14l4.2-4.2"/></g>
</g></g>

<text x="400" y="216" text-anchor="middle" fill="#ffffff" font-family="system-ui,-apple-system,'Segoe UI',Roboto,Arial,sans-serif" font-size="41" font-weight="700" letter-spacing="-.6">Gıda Taşımacılığı</text>
<rect x="372" y="232" width="56" height="3" rx="1.5" fill="#f5a524"/>
<text x="400" y="264" text-anchor="middle" fill="#a8cbd5" font-family="system-ui,-apple-system,'Segoe UI',Roboto,Arial,sans-serif" font-size="17.5" font-weight="500">Soğuk zincir ve gıda lojistiği</text>
<text x="400" y="304" text-anchor="middle" fill="#79aabb" font-family="system-ui,-apple-system,'Segoe UI',Roboto,Arial,sans-serif" font-size="12.5" font-weight="700" letter-spacing="4.2">DÖNMAR NAKLİYAT</text>
</svg>
